<svg width="19" height="22" viewBox="0 0 19 22" fill="none" xmlns="http://www.w3.org/2000/svg">
<g clip-path="url(#clip0_1334_6641)">
<path d="M15.7002 2.13461C14.7313 1.03024 12.9798 0.556763 10.7391 0.556763H4.2361C4.01439 0.556729 3.79995 0.635806 3.63135 0.77977C3.46274 0.923734 3.35104 1.12314 3.31634 1.34211L0.608589 18.5153C0.554768 18.854 0.81699 19.1606 1.16022 19.1606H5.17498L6.18325 12.7653L6.15196 12.9655C6.22379 12.5135 6.61042 12.1801 7.06824 12.1801H8.97605C12.7239 12.1801 15.6586 10.6578 16.5158 6.25409C16.5413 6.12385 16.5633 5.99708 16.5824 5.87324C16.4742 5.81594 16.4742 5.81594 16.5824 5.87324C16.8376 4.2456 16.5806 3.13768 15.7002 2.13461Z" fill="#27346A" style="fill:#27346A;fill:color(display-p3 0.1529 0.2039 0.4157);fill-opacity:1;"/>
<path d="M7.71945 5.28691C7.82918 5.23456 7.94925 5.20748 8.07082 5.20764H13.1691C13.7728 5.20764 14.3359 5.24692 14.8505 5.32974C14.9945 5.35272 15.1377 5.38013 15.28 5.41193C15.4817 5.45645 15.681 5.51091 15.8773 5.57514C16.1303 5.65962 16.3659 5.75802 16.5824 5.87324C16.8376 4.24497 16.5806 3.13768 15.7002 2.13461C14.7307 1.03024 12.9798 0.556763 10.7391 0.556763H4.23554C3.77764 0.556763 3.3881 0.89012 3.31634 1.34211L0.60859 18.5147C0.554768 18.8539 0.81699 19.1601 1.15967 19.1601H5.17498L7.26684 5.89466C7.28743 5.76427 7.33937 5.64084 7.41822 5.53498C7.49706 5.42911 7.60043 5.34398 7.71945 5.28691Z" fill="#27346A" style="fill:#27346A;fill:color(display-p3 0.1529 0.2039 0.4157);fill-opacity:1;"/>
<path d="M16.5168 6.25408C15.6596 10.6571 12.725 12.18 8.97706 12.18H7.0687C6.61087 12.18 6.22418 12.5135 6.15305 12.9655L4.89868 20.9174C4.85181 21.2137 5.081 21.4823 5.38084 21.4823H8.76518C8.95905 21.4822 9.14653 21.413 9.29392 21.2871C9.44131 21.1611 9.53893 20.9867 9.56923 20.7953L9.60219 20.6228L10.24 16.5802L10.2811 16.3568C10.3114 16.1653 10.409 15.991 10.5564 15.865C10.7038 15.7391 10.8913 15.6699 11.0851 15.6698H11.5916C14.8701 15.6698 17.4371 14.3379 18.1873 10.4859C18.5004 8.87609 18.3384 7.53209 17.5101 6.58806C17.2588 6.30213 16.9468 6.06598 16.5834 5.87323C16.5637 5.9977 16.5423 6.12384 16.5168 6.25408Z" fill="#2790C3" style="fill:#2790C3;fill:color(display-p3 0.1529 0.5647 0.7647);fill-opacity:1;"/>
<path d="M15.687 5.5155C15.5533 5.47647 15.4184 5.44191 15.2824 5.41189C15.14 5.38059 14.9968 5.35337 14.8529 5.33025C14.3378 5.24688 13.7751 5.20752 13.1708 5.20752H8.07315C7.95151 5.20732 7.83139 5.23463 7.72179 5.28742C7.60261 5.34429 7.4991 5.42936 7.42022 5.53526C7.34134 5.64116 7.28947 5.7647 7.2691 5.89517L6.18559 12.7652L6.1543 12.9655C6.22557 12.5134 6.61219 12.18 7.07009 12.18H8.97845C12.7263 12.18 15.6609 10.6577 16.5181 6.25404C16.5437 6.1238 16.5651 5.99759 16.5848 5.87319C16.3677 5.75869 16.1327 5.65951 15.8797 5.57565C15.8158 5.55448 15.7516 5.53442 15.687 5.5155" fill="#1F264F" style="fill:#1F264F;fill:color(display-p3 0.1216 0.1490 0.3098);fill-opacity:1;"/>
</g>
<defs>
<clipPath id="clip0_1334_6641">
<rect width="17.81" height="21" fill="white" style="fill:white;fill-opacity:1;" transform="translate(0.595703 0.5)"/>
</clipPath>
</defs>
</svg>
