<svg width="17" height="18" viewBox="0 0 17 18" fill="none" xmlns="http://www.w3.org/2000/svg">
<g clip-path="url(#clip0_1304_5582)">
<path d="M8.5 0.5C3.71171 0.5 0 4.00745 0 8.745C0 11.2231 1.01555 13.3644 2.66953 14.8434C2.80832 14.9677 2.89213 15.1418 2.89784 15.3281L2.94412 16.8401C2.95893 17.3224 3.45704 17.6362 3.89838 17.4414L5.5855 16.6965C5.72849 16.6335 5.88886 16.6217 6.03952 16.6632C6.81481 16.8764 7.63991 16.9899 8.5 16.9899C13.2883 16.9899 17 13.4825 17 8.74493C17 4.00738 13.2883 0.5 8.5 0.5Z" fill="url(#paint0_radial_1304_5582)" style=""/>
<path d="M3.39572 11.1561L5.8926 7.1948C6.2897 6.5646 7.14024 6.40768 7.73617 6.8546L9.72204 8.34409C9.81073 8.41061 9.91868 8.44642 10.0295 8.44609C10.1404 8.44577 10.2481 8.40933 10.3364 8.3423L13.0185 6.30681C13.3764 6.03514 13.8437 6.46353 13.6042 6.84371L11.1073 10.8051C10.7101 11.4352 9.85951 11.5922 9.26364 11.1452L7.2777 9.65575C7.18902 9.58926 7.0811 9.55347 6.97027 9.55379C6.85944 9.55412 6.75172 9.59054 6.66344 9.65754L3.98129 11.693C3.62336 11.9646 3.15606 11.5363 3.39572 11.1561Z" fill="white" style="fill:white;fill-opacity:1;"/>
</g>
<defs>
<radialGradient id="paint0_radial_1304_5582" cx="0" cy="0" r="1" gradientUnits="userSpaceOnUse" gradientTransform="translate(327.199 1691.4) scale(1852.32 1852.32)">
<stop stop-color="#0099FF" style="stop-color:#0099FF;stop-color:color(display-p3 0.0000 0.6000 1.0000);stop-opacity:1;"/>
<stop offset="0.60975" stop-color="#A033FF" style="stop-color:#A033FF;stop-color:color(display-p3 0.6275 0.2000 1.0000);stop-opacity:1;"/>
<stop offset="0.93482" stop-color="#FF5280" style="stop-color:#FF5280;stop-color:color(display-p3 1.0000 0.3216 0.5020);stop-opacity:1;"/>
<stop offset="1" stop-color="#FF7061" style="stop-color:#FF7061;stop-color:color(display-p3 1.0000 0.4392 0.3804);stop-opacity:1;"/>
</radialGradient>
<clipPath id="clip0_1304_5582">
<rect width="17" height="17" fill="white" style="fill:white;fill-opacity:1;" transform="translate(0 0.5)"/>
</clipPath>
</defs>
</svg>
