<svg width="21" height="22" viewBox="0 0 21 22" fill="none" xmlns="http://www.w3.org/2000/svg">
<g clip-path="url(#clip0_1304_5561)">
<path d="M0.445165 10.8743C0.444677 12.6387 0.9057 14.3615 1.78233 15.88L0.361328 21.0683L5.67091 19.6761C7.13948 20.4756 8.78489 20.8945 10.457 20.8946H10.4614C15.9812 20.8946 20.4744 16.403 20.4768 10.8822C20.4779 8.20693 19.437 5.69133 17.5458 3.79872C15.655 1.90628 13.1403 0.863526 10.4609 0.862305C4.94047 0.862305 0.447526 5.3537 0.445247 10.8743" fill="url(#paint0_linear_1304_5561)" style=""/>
<path d="M0.0890462 10.8711C0.0884764 12.699 0.566023 14.4834 1.47391 16.0563L0.00195312 21.4306L5.50192 19.9885C7.01734 20.8147 8.72355 21.2504 10.4597 21.251H10.4642C16.182 21.251 20.8367 16.5978 20.8392 10.8794C20.8401 8.10802 19.7618 5.50199 17.8031 3.54158C15.8442 1.58142 13.2395 0.50114 10.4642 0.5C4.74535 0.5 0.0913252 5.15256 0.0890462 10.8711ZM3.36448 15.7854L3.15912 15.4594C2.29584 14.0868 1.84019 12.5005 1.84084 10.8717C1.84263 6.11864 5.71086 2.25163 10.4674 2.25163C12.7709 2.2526 14.9357 3.15056 16.564 4.77977C18.1921 6.40914 19.088 8.57507 19.0875 10.8787C19.0853 15.6318 15.217 19.4993 10.4642 19.4993H10.4608C8.9132 19.4985 7.39542 19.0829 6.07177 18.2975L5.75677 18.1107L2.49298 18.9664L3.36448 15.7854Z" fill="url(#paint1_linear_1304_5561)" style=""/>
<path d="M7.87013 6.53525C7.67592 6.10361 7.47153 6.0949 7.28685 6.08733C7.13562 6.08082 6.96273 6.08131 6.79001 6.08131C6.61713 6.08131 6.33623 6.14634 6.0988 6.40559C5.86113 6.66507 5.19141 7.29214 5.19141 8.56753C5.19141 9.84291 6.12037 11.0756 6.24987 11.2487C6.37953 11.4215 8.04325 14.1225 10.6782 15.1616C12.868 16.0251 13.3137 15.8534 13.789 15.8101C14.2643 15.7669 15.3228 15.1832 15.5387 14.5778C15.7548 13.9726 15.7548 13.4538 15.69 13.3454C15.6252 13.2373 15.4523 13.1725 15.1931 13.0429C14.9339 12.9133 13.6593 12.2861 13.4217 12.1996C13.184 12.1131 13.0112 12.07 12.8383 12.3295C12.6655 12.5887 12.169 13.1725 12.0177 13.3454C11.8666 13.5186 11.7152 13.5402 11.4561 13.4106C11.1967 13.2805 10.3618 13.0071 9.3713 12.124C8.60065 11.4369 8.08037 10.5883 7.92914 10.3288C7.77791 10.0696 7.91294 9.92911 8.04293 9.79994C8.15941 9.68378 8.30226 9.49723 8.432 9.34591C8.56126 9.19452 8.60439 9.0865 8.69084 8.91362C8.77736 8.74057 8.73406 8.58918 8.66935 8.45952C8.60439 8.32985 8.10064 7.0478 7.87013 6.53525Z" fill="white" style="fill:white;fill-opacity:1;"/>
</g>
<defs>
<linearGradient id="paint0_linear_1304_5561" x1="1006.14" y1="2021.46" x2="1006.14" y2="0.862305" gradientUnits="userSpaceOnUse">
<stop stop-color="#1FAF38" style="stop-color:#1FAF38;stop-color:color(display-p3 0.1216 0.6863 0.2196);stop-opacity:1;"/>
<stop offset="1" stop-color="#60D669" style="stop-color:#60D669;stop-color:color(display-p3 0.3765 0.8392 0.4118);stop-opacity:1;"/>
</linearGradient>
<linearGradient id="paint1_linear_1304_5561" x1="1041.86" y1="2093.56" x2="1041.86" y2="0.5" gradientUnits="userSpaceOnUse">
<stop stop-color="#F9F9F9" style="stop-color:#F9F9F9;stop-color:color(display-p3 0.9765 0.9765 0.9765);stop-opacity:1;"/>
<stop offset="1" stop-color="white" style="stop-color:white;stop-opacity:1;"/>
</linearGradient>
<clipPath id="clip0_1304_5561">
<rect width="20.84" height="21" fill="white" style="fill:white;fill-opacity:1;" transform="translate(0 0.5)"/>
</clipPath>
</defs>
</svg>
