<svg width="22" height="18" viewBox="0 0 22 18" fill="none" xmlns="http://www.w3.org/2000/svg">
<g clip-path="url(#clip0_1304_5576)">
<path d="M5.00106 17.4162V8.70394L2.3654 6.23207L0.00195312 4.86035V15.8787C0.00195312 16.7294 0.674291 17.4162 1.50172 17.4162H5.00106Z" fill="#4285F4" style="fill:#4285F4;fill:color(display-p3 0.2588 0.5216 0.9569);fill-opacity:1;"/>
<path d="M16.998 17.4164H20.4974C21.3273 17.4164 21.9972 16.727 21.9972 15.8789V4.8606L19.3202 6.43173L16.998 8.70409V17.4164Z" fill="#34A853" style="fill:#34A853;fill:color(display-p3 0.2039 0.6588 0.3255);fill-opacity:1;"/>
<path d="M5.00122 8.70399L4.64258 5.29985L5.00122 2.04175L11.0001 6.65412L16.999 2.04175L17.4002 5.12394L16.999 8.70399L11.0001 13.3164L5.00122 8.70399Z" fill="#EA4335" style="fill:#EA4335;fill:color(display-p3 0.9176 0.2627 0.2078);fill-opacity:1;"/>
<path d="M16.998 2.04178V8.70401L21.9972 4.86043V2.81048C21.9972 0.909206 19.88 -0.174654 18.3979 0.965579L16.998 2.04178Z" fill="#FBBC04" style="fill:#FBBC04;fill:color(display-p3 0.9843 0.7373 0.0157);fill-opacity:1;"/>
<path d="M0.00195312 4.86047L2.30114 6.62829L5.00106 8.70405V2.04182L3.60122 0.965619C2.11649 -0.174702 0.00195312 0.909246 0.00195312 2.81043V4.86047Z" fill="#C5221F" style="fill:#C5221F;fill:color(display-p3 0.7725 0.1333 0.1216);fill-opacity:1;"/>
</g>
<defs>
<clipPath id="clip0_1304_5576">
<rect width="22" height="17" fill="white" style="fill:white;fill-opacity:1;" transform="translate(0 0.5)"/>
</clipPath>
</defs>
</svg>
