<svg width="20" height="20" viewBox="0 0 20 20" fill="none" xmlns="http://www.w3.org/2000/svg">
<g clip-path="url(#clip0_1304_5565)">
<path d="M15.3867 0.5H5.29297C2.83358 0.5 0.839844 2.49373 0.839844 4.95312V15.0469C0.839844 17.5063 2.83358 19.5 5.29297 19.5H15.3867C17.8461 19.5 19.8398 17.5063 19.8398 15.0469V4.95312C19.8398 2.49373 17.8461 0.5 15.3867 0.5Z" fill="white" style="fill:white;fill-opacity:1;"/>
<path d="M15.3867 0.5H5.29297C2.83358 0.5 0.839844 2.49373 0.839844 4.95312V15.0469C0.839844 17.5063 2.83358 19.5 5.29297 19.5H15.3867C17.8461 19.5 19.8398 17.5063 19.8398 15.0469V4.95312C19.8398 2.49373 17.8461 0.5 15.3867 0.5Z" fill="#0A66C2" style="fill:#0A66C2;fill:color(display-p3 0.0392 0.4000 0.7608);fill-opacity:1;"/>
<path d="M14.5492 16.6563H16.7215C16.8003 16.6563 16.8758 16.625 16.9314 16.5694C16.9871 16.5137 17.0184 16.4382 17.0184 16.3595L17.0195 11.7697C17.0195 9.3707 16.5026 7.52673 13.6991 7.52673C12.6334 7.4871 11.6284 8.03647 11.0861 8.95381C11.0835 8.95827 11.0794 8.96173 11.0746 8.96368C11.0698 8.96563 11.0645 8.96595 11.0595 8.96459C11.0545 8.96324 11.0501 8.96029 11.0469 8.95618C11.0437 8.95208 11.042 8.94705 11.042 8.94186V8.04508C11.042 7.96634 11.0107 7.89083 10.955 7.83516C10.8993 7.77948 10.8238 7.7482 10.7451 7.7482H8.6835C8.60477 7.7482 8.52926 7.77948 8.47358 7.83516C8.41791 7.89083 8.38663 7.96634 8.38663 8.04508V16.3591C8.38663 16.4378 8.41791 16.5133 8.47358 16.569C8.52926 16.6247 8.60477 16.6559 8.6835 16.6559H10.8557C10.9345 16.6559 11.01 16.6247 11.0657 16.569C11.1213 16.5133 11.1526 16.4378 11.1526 16.3591V12.2493C11.1526 11.0873 11.373 9.96193 12.8137 9.96193C14.2339 9.96193 14.2523 11.2916 14.2523 12.3246V16.3594C14.2523 16.4382 14.2836 16.5137 14.3392 16.5694C14.3949 16.625 14.4704 16.6563 14.5492 16.6563ZM3.66016 4.92552C3.66016 5.80605 4.38505 6.53057 5.26566 6.53057C6.14604 6.5305 6.87049 5.80553 6.87049 4.92514C6.87034 4.04476 6.14582 3.32031 5.26536 3.32031C4.38468 3.32031 3.66016 4.04498 3.66016 4.92552ZM4.17664 16.6563H6.35177C6.43051 16.6563 6.50602 16.625 6.5617 16.5694C6.61737 16.5137 6.64865 16.4382 6.64865 16.3594V8.04508C6.64865 7.96634 6.61737 7.89083 6.5617 7.83516C6.50602 7.77948 6.43051 7.7482 6.35177 7.7482H4.17664C4.09791 7.7482 4.0224 7.77948 3.96672 7.83516C3.91105 7.89083 3.87977 7.96634 3.87977 8.04508V16.3594C3.87977 16.4382 3.91105 16.5137 3.96672 16.5694C4.0224 16.625 4.09791 16.6563 4.17664 16.6563Z" fill="white" style="fill:white;fill-opacity:1;"/>
</g>
<defs>
<clipPath id="clip0_1304_5565">
<rect width="19" height="19" fill="white" style="fill:white;fill-opacity:1;" transform="translate(0.839844 0.5)"/>
</clipPath>
</defs>
</svg>
