<svg width="19" height="20" viewBox="0 0 19 20" fill="none" xmlns="http://www.w3.org/2000/svg">
<g clip-path="url(#clip0_1304_5570)">
<path d="M14.5469 0.5H4.45312C1.99373 0.5 0 2.49373 0 4.95312V15.0469C0 17.5063 1.99373 19.5 4.45312 19.5H14.5469C17.0063 19.5 19 17.5063 19 15.0469V4.95312C19 2.49373 17.0063 0.5 14.5469 0.5Z" fill="url(#paint0_radial_1304_5570)" style=""/>
<path d="M14.5469 0.5H4.45312C1.99373 0.5 0 2.49373 0 4.95312V15.0469C0 17.5063 1.99373 19.5 4.45312 19.5H14.5469C17.0063 19.5 19 17.5063 19 15.0469V4.95312C19 2.49373 17.0063 0.5 14.5469 0.5Z" fill="url(#paint1_radial_1304_5570)" style=""/>
<path d="M9.50067 2.57812C7.48504 2.57812 7.23202 2.58696 6.44041 2.62295C5.65027 2.65917 5.11093 2.78423 4.63904 2.96777C4.15083 3.15733 3.73677 3.41093 3.32426 3.82359C2.91138 4.23617 2.65777 4.65024 2.46763 5.13823C2.28356 5.61026 2.15836 6.14983 2.1228 6.93959C2.0874 7.73128 2.07812 7.98437 2.07812 10.0001C2.07812 12.0158 2.08703 12.268 2.12295 13.0596C2.15932 13.8497 2.28438 14.3891 2.46777 14.861C2.65748 15.3492 2.91108 15.7632 3.32374 16.1757C3.73617 16.5886 4.15024 16.8428 4.63808 17.0324C5.11033 17.2159 5.64975 17.341 6.43974 17.3772C7.23143 17.4132 7.48422 17.422 9.49978 17.422C11.5156 17.422 11.7678 17.4132 12.5594 17.3772C13.3496 17.341 13.8895 17.2159 14.3618 17.0324C14.8498 16.8428 15.2632 16.5886 15.6756 16.1757C16.0885 15.7632 16.342 15.3492 16.5322 14.8612C16.7147 14.3891 16.8399 13.8496 16.877 13.0597C16.9126 12.2681 16.9219 12.0158 16.9219 10.0001C16.9219 7.98437 16.9126 7.73143 16.877 6.93974C16.8399 6.14961 16.7147 5.61033 16.5322 5.13845C16.342 4.65024 16.0885 4.23617 15.6756 3.82359C15.2628 3.41079 14.8499 3.15718 14.3613 2.96785C13.8882 2.78423 13.3485 2.6591 12.5584 2.62295C11.7667 2.58696 11.5147 2.57812 9.49837 2.57812H9.50067ZM8.83485 3.91562C9.0325 3.91532 9.253 3.91562 9.50067 3.91562C11.4824 3.91562 11.7172 3.92275 12.4998 3.9583C13.2234 3.9914 13.6162 4.1123 13.8778 4.21391C14.2242 4.34839 14.4711 4.50922 14.7307 4.76906C14.9905 5.02883 15.1512 5.2762 15.2861 5.62258C15.3877 5.88383 15.5088 6.27659 15.5417 7.00023C15.5773 7.78264 15.585 8.01762 15.585 9.99837C15.585 11.9791 15.5773 12.2142 15.5417 12.9965C15.5086 13.7201 15.3877 14.1129 15.2861 14.3742C15.1516 14.7206 14.9905 14.9672 14.7307 15.2269C14.4709 15.4866 14.2243 15.6474 13.8778 15.7819C13.6165 15.884 13.2234 16.0046 12.4998 16.0377C11.7174 16.0732 11.4824 16.081 9.50067 16.081C7.51888 16.081 7.28398 16.0732 6.50164 16.0377C5.778 16.0043 5.38524 15.8834 5.12339 15.7818C4.77709 15.6472 4.52964 15.4865 4.26988 15.2267C4.01011 14.9669 3.84936 14.7202 3.7145 14.3736C3.61289 14.1123 3.49184 13.7195 3.45889 12.9959C3.42334 12.2135 3.41621 11.9785 3.41621 9.99651C3.41621 8.01457 3.42334 7.78079 3.45889 6.99837C3.49199 6.27474 3.61289 5.88197 3.7145 5.62035C3.84906 5.27397 4.01011 5.0266 4.26995 4.76684C4.52972 4.50707 4.77709 4.34624 5.12347 4.21146C5.38509 4.10941 5.778 3.9888 6.50164 3.95555C7.1863 3.9246 7.45164 3.91532 8.83485 3.91377V3.91562ZM13.4625 5.14795C12.9708 5.14795 12.5718 5.5465 12.5718 6.03828C12.5718 6.52998 12.9708 6.9289 13.4625 6.9289C13.9542 6.9289 14.3531 6.52998 14.3531 6.03828C14.3531 5.54658 13.9542 5.14765 13.4625 5.14765V5.14795ZM9.50067 6.18857C7.39582 6.18857 5.68924 7.89516 5.68924 10.0001C5.68924 12.105 7.39582 13.8108 9.50067 13.8108C11.6056 13.8108 13.3116 12.105 13.3116 10.0001C13.3116 7.89523 11.6054 6.18857 9.50052 6.18857H9.50067ZM9.50067 7.52607C10.867 7.52607 11.9747 8.63363 11.9747 10.0001C11.9747 11.3664 10.867 12.4741 9.50067 12.4741C8.1343 12.4741 7.02673 11.3664 7.02673 10.0001C7.02673 8.63363 8.1343 7.52607 9.50067 7.52607Z" fill="white" style="fill:white;fill-opacity:1;"/>
</g>
<defs>
<radialGradient id="paint0_radial_1304_5570" cx="0" cy="0" r="1" gradientUnits="userSpaceOnUse" gradientTransform="translate(5.04687 20.9634) rotate(-90) scale(18.8304 17.5138)">
<stop stop-color="#FFDD55" style="stop-color:#FFDD55;stop-color:color(display-p3 1.0000 0.8667 0.3333);stop-opacity:1;"/>
<stop offset="0.1" stop-color="#FFDD55" style="stop-color:#FFDD55;stop-color:color(display-p3 1.0000 0.8667 0.3333);stop-opacity:1;"/>
<stop offset="0.5" stop-color="#FF543E" style="stop-color:#FF543E;stop-color:color(display-p3 1.0000 0.3294 0.2431);stop-opacity:1;"/>
<stop offset="1" stop-color="#C837AB" style="stop-color:#C837AB;stop-color:color(display-p3 0.7843 0.2157 0.6706);stop-opacity:1;"/>
</radialGradient>
<radialGradient id="paint1_radial_1304_5570" cx="0" cy="0" r="1" gradientUnits="userSpaceOnUse" gradientTransform="translate(-3.18257 1.86867) rotate(78.681) scale(8.4173 34.6964)">
<stop stop-color="#3771C8" style="stop-color:#3771C8;stop-color:color(display-p3 0.2157 0.4431 0.7843);stop-opacity:1;"/>
<stop offset="0.128" stop-color="#3771C8" style="stop-color:#3771C8;stop-color:color(display-p3 0.2157 0.4431 0.7843);stop-opacity:1;"/>
<stop offset="1" stop-color="#6600FF" stop-opacity="0" style="stop-color:none;stop-opacity:0;"/>
</radialGradient>
<clipPath id="clip0_1304_5570">
<rect width="19" height="19" fill="white" style="fill:white;fill-opacity:1;" transform="translate(0 0.5)"/>
</clipPath>
</defs>
</svg>
